<svg width="152" height="42" viewBox="0 0 152 42" fill="none" xmlns="http://www.w3.org/2000/svg">
<path fill-rule="evenodd" clip-rule="evenodd" d="M15.2363 6.74016H32.1482V0.157959H15.2363V6.74016Z" fill="#F49D1E"/>
<path fill-rule="evenodd" clip-rule="evenodd" d="M12.8503 9.12552V3.28113H0.0200067V7.79021H0V25.1633H32.1473V9.12552H12.8503Z" fill="#F9BD17"/>
<path fill-rule="evenodd" clip-rule="evenodd" d="M41.6865 25.2439V9.16309H53.066V12.1768H45.1101V15.576H52.8973V18.5898H45.1101V25.2439H41.6865Z" fill="#494949"/>
<path fill-rule="evenodd" clip-rule="evenodd" d="M68.4148 17.2152C68.4148 14.2015 66.4858 11.9351 63.5202 11.9351C60.5554 11.9351 58.6507 14.2015 58.6507 17.2152C58.6507 20.2046 60.5554 22.4951 63.5202 22.4951C66.4858 22.4951 68.4148 20.2046 68.4148 17.2152ZM55.1304 17.2152C55.1304 12.3693 58.6745 8.89758 63.5202 8.89758C68.3905 8.89758 71.9346 12.3693 71.9346 17.2152C71.9346 22.0609 68.3905 25.5326 63.5202 25.5326C58.6745 25.5326 55.1304 22.0609 55.1304 17.2152Z" fill="#494949"/>
<path fill-rule="evenodd" clip-rule="evenodd" d="M74.2031 25.2439V9.16309H77.6267V22.2302H84.4252V25.2439H74.2031Z" fill="#494949"/>
<path fill-rule="evenodd" clip-rule="evenodd" d="M98.0745 17.2154C98.0745 14.3704 96.3388 12.1764 93.0358 12.1764H90.1184V22.2298H93.0358C96.2182 22.2298 98.0745 19.9398 98.0745 17.2154ZM86.6953 25.2435V9.16272H93.0358C98.0745 9.16272 101.571 12.3695 101.571 17.2154C101.571 22.0611 98.0745 25.2435 93.0358 25.2435H86.6953Z" fill="#494949"/>
<path fill-rule="evenodd" clip-rule="evenodd" d="M103.838 25.2439V9.16309H115.217V12.1768H107.261V15.576H115.049V18.5898H107.261V22.2302H115.217V25.2439H103.838Z" fill="#494949"/>
<path fill-rule="evenodd" clip-rule="evenodd" d="M126.732 14.3464C126.732 12.996 125.696 12.1763 124.322 12.1763H120.729V16.5161H124.322C125.696 16.5161 126.732 15.6969 126.732 14.3464ZM126.395 25.2441L123.236 19.5295H120.729V25.2441H117.306V9.16309H124.828C128.179 9.16309 130.228 11.3571 130.228 14.3464C130.228 17.1914 128.444 18.7103 126.708 19.1205L130.325 25.2441H126.395Z" fill="#494949"/>
<path fill-rule="evenodd" clip-rule="evenodd" d="M132.592 25.2439H136.015V9.16309H132.592V25.2439Z" fill="#494949"/>
<path fill-rule="evenodd" clip-rule="evenodd" d="M142.987 25.2439V12.1768H138.285V9.16309H151.112V12.1768H146.434V25.2439H142.987Z" fill="#494949"/>
<path fill-rule="evenodd" clip-rule="evenodd" d="M2.25106 40.2203V37.8871L0.0751953 34.7023H0.877626L2.59036 37.2666L4.30229 34.7023H5.10526L2.93778 37.8871V40.2203H2.25106Z" fill="#494949"/>
<path fill-rule="evenodd" clip-rule="evenodd" d="M8.64437 38.2185C8.64437 37.4074 8.17259 36.6796 7.32095 36.6796C6.46877 36.6796 5.98888 37.4074 5.98888 38.2185C5.98888 39.0377 6.46877 39.7658 7.32095 39.7658C8.17259 39.7658 8.64437 39.0377 8.64437 38.2185ZM5.34326 38.2185C5.34326 37.06 6.10433 36.1254 7.32095 36.1254C8.53703 36.1254 9.2981 37.06 9.2981 38.2185C9.2981 39.377 8.53703 40.32 7.32095 40.32C6.10433 40.32 5.34326 39.377 5.34326 38.2185Z" fill="#494949"/>
<path fill-rule="evenodd" clip-rule="evenodd" d="M13.8321 40.2204V39.6581C13.5258 40.0055 13.0048 40.3199 12.4092 40.3199C11.5738 40.3199 11.1353 39.9144 11.1353 39.0457V36.2245H11.7557V38.8551C11.7557 39.5588 12.1113 39.7657 12.6493 39.7657C13.1373 39.7657 13.6001 39.4845 13.8321 39.1614V36.2245H14.4526V40.2204H13.8321Z" fill="#494949"/>
<path fill-rule="evenodd" clip-rule="evenodd" d="M16.5195 40.2206V36.2247H17.14V36.87C17.4625 36.4483 17.9262 36.1422 18.4723 36.1422V36.7789C18.3972 36.7627 18.3228 36.7546 18.2236 36.7546C17.8429 36.7546 17.322 37.0687 17.14 37.3913V40.2206H16.5195Z" fill="#494949"/>
<path fill-rule="evenodd" clip-rule="evenodd" d="M25.9342 39.137V37.3248C25.7111 36.9774 25.2312 36.68 24.7343 36.68C23.9322 36.68 23.4523 37.3418 23.4523 38.2272C23.4523 39.1119 23.9322 39.7656 24.7343 39.7656C25.2312 39.7656 25.7111 39.4844 25.9342 39.137ZM25.9342 40.2203V39.625C25.6362 40.0305 25.1482 40.3198 24.5856 40.3198C23.5434 40.3198 22.8066 39.5255 22.8066 38.2272C22.8066 36.953 23.5347 36.1257 24.5856 36.1257C25.1231 36.1257 25.6116 36.3901 25.9342 36.8287V34.7023H26.5547V40.2203H25.9342Z" fill="#494949"/>
<path fill-rule="evenodd" clip-rule="evenodd" d="M31.6912 38.2185C31.6912 37.4074 31.2195 36.6796 30.3678 36.6796C29.5154 36.6796 29.0355 37.4074 29.0355 38.2185C29.0355 39.0377 29.5154 39.7658 30.3678 39.7658C31.2195 39.7658 31.6912 39.0377 31.6912 38.2185ZM28.3901 38.2185C28.3901 37.06 29.1512 36.1254 30.3678 36.1254C31.5836 36.1254 32.3447 37.06 32.3447 38.2185C32.3447 39.377 31.5836 40.32 30.3678 40.32C29.1512 40.32 28.3901 39.377 28.3901 38.2185Z" fill="#494949"/>
<path fill-rule="evenodd" clip-rule="evenodd" d="M33.9487 38.2185C33.9487 37.0357 34.7512 36.1254 35.9426 36.1254C36.6707 36.1254 37.1006 36.4233 37.4069 36.8202L36.9933 37.2006C36.7289 36.837 36.3895 36.6796 35.9759 36.6796C35.1234 36.6796 34.5944 37.3331 34.5944 38.2185C34.5944 39.1039 35.1234 39.7658 35.9759 39.7658C36.3895 39.7658 36.7289 39.6 36.9933 39.2445L37.4069 39.6252C37.1006 40.0218 36.6707 40.32 35.9426 40.32C34.7512 40.32 33.9487 39.4102 33.9487 38.2185Z" fill="#494949"/>
<path fill-rule="evenodd" clip-rule="evenodd" d="M41.7999 40.2204V39.6581C41.4938 40.0055 40.9726 40.3199 40.3772 40.3199C39.5418 40.3199 39.103 39.9144 39.103 39.0457V36.2245H39.7235V38.8551C39.7235 39.5588 40.079 39.7657 40.617 39.7657C41.105 39.7657 41.5682 39.4845 41.7999 39.1614V36.2245H42.4206V40.2204H41.7999Z" fill="#494949"/>
<path fill-rule="evenodd" clip-rule="evenodd" d="M49.3108 40.2204V37.5068C49.3108 37.0023 49.0875 36.6792 48.5746 36.6792C48.161 36.6792 47.7222 36.9774 47.5153 37.2916V40.2204H46.8949V37.5068C46.8949 37.0023 46.6799 36.6792 46.1589 36.6792C45.7534 36.6792 45.3227 36.9774 45.1078 37.3V40.2204H44.4873V36.2245H45.1078V36.8036C45.2735 36.5476 45.8115 36.125 46.3988 36.125C47.0106 36.125 47.358 36.4562 47.4743 36.8698C47.6973 36.5057 48.2353 36.125 48.8144 36.125C49.5425 36.125 49.9313 36.5305 49.9313 37.333V40.2204H49.3108Z" fill="#494949"/>
<path fill-rule="evenodd" clip-rule="evenodd" d="M53.7285 36.6382C52.8761 36.6382 52.4543 37.3582 52.421 37.9706H55.0438C55.0357 37.3744 54.6383 36.6382 53.7285 36.6382ZM51.7676 38.2185C51.7676 37.06 52.5949 36.1254 53.7366 36.1254C54.9443 36.1254 55.6562 37.0684 55.6562 38.268V38.4253H52.421C52.4711 39.1783 53.0004 39.8071 53.861 39.8071C54.3157 39.8071 54.7789 39.6252 55.093 39.3021L55.3912 39.7076C54.9943 40.1045 54.4563 40.32 53.8029 40.32C52.6198 40.32 51.7676 39.4678 51.7676 38.2185Z" fill="#494949"/>
<path fill-rule="evenodd" clip-rule="evenodd" d="M60.1798 40.2204V37.606C60.1798 36.9031 59.8242 36.6792 59.2862 36.6792C58.7982 36.6792 58.3351 36.9774 58.1034 37.3V40.2204H57.4829V36.2245H58.1034V36.8036C58.3846 36.4732 58.9307 36.125 59.526 36.125C60.3614 36.125 60.8002 36.5476 60.8002 37.416V40.2204H60.1798Z" fill="#494949"/>
<path fill-rule="evenodd" clip-rule="evenodd" d="M62.9936 39.3852V36.7705H62.332V36.2244H62.9936V35.1329H63.6141V36.2244H64.4246V36.7705H63.6141V39.2527C63.6141 39.5506 63.7466 39.7656 64.0196 39.7656C64.1935 39.7656 64.3589 39.6912 64.4414 39.6001L64.6233 40.0638C64.4665 40.2125 64.2427 40.3198 63.8785 40.3198C63.2918 40.3198 62.9936 39.9805 62.9936 39.3852Z" fill="#494949"/>
<path fill-rule="evenodd" clip-rule="evenodd" d="M65.7798 39.6913L66.1021 39.2443C66.367 39.5507 66.872 39.8156 67.4174 39.8156C68.0297 39.8156 68.3609 39.5255 68.3609 39.1289C68.3609 38.161 65.8871 38.7563 65.8871 37.2756C65.8871 36.6551 66.4251 36.1257 67.3763 36.1257C68.0549 36.1257 68.5348 36.382 68.857 36.7043L68.5677 37.135C68.3279 36.8449 67.8891 36.63 67.3763 36.63C66.8307 36.63 66.4914 36.903 66.4914 37.2594C66.4914 38.1359 68.9646 37.5568 68.9646 39.1119C68.9646 39.7824 68.4272 40.3198 67.393 40.3198C66.7396 40.3198 66.1853 40.1211 65.7798 39.6913Z" fill="#494949"/>
<path fill-rule="evenodd" clip-rule="evenodd" d="M70.6782 39.8483C70.6782 39.6004 70.885 39.3936 71.1332 39.3936C71.3812 39.3936 71.588 39.6004 71.588 39.8483C71.588 40.0965 71.3812 40.3033 71.1332 40.3033C70.885 40.3033 70.6782 40.0965 70.6782 39.8483Z" fill="#494949"/>
<path fill-rule="evenodd" clip-rule="evenodd" d="M81.2337 40.2203V35.6783L79.356 40.2203H79.0743L77.2048 35.6783V40.2203H76.5181V34.7023H77.5027L79.2155 38.855L80.9358 34.7023H81.9204V40.2203H81.2337Z" fill="#494949"/>
<path fill-rule="evenodd" clip-rule="evenodd" d="M86.5096 39.3768V38.6239C86.2695 38.2935 85.8477 38.1278 85.4089 38.1278C84.8298 38.1278 84.4248 38.4914 84.4248 39.0045C84.4248 39.5093 84.8298 39.8729 85.4089 39.8729C85.8477 39.8729 86.2695 39.708 86.5096 39.3768ZM86.5096 40.2203V39.7656C86.1784 40.1298 85.7234 40.3198 85.1859 40.3198C84.5073 40.3198 83.7876 39.8648 83.7876 38.9964C83.7876 38.1029 84.5073 37.6811 85.1859 37.6811C85.7315 37.6811 86.187 37.8547 86.5096 38.2272V37.5073C86.5096 36.9693 86.0789 36.6632 85.5003 36.6632C85.0204 36.6632 84.6317 36.8368 84.2756 37.2174L83.9863 36.7876C84.4162 36.3407 84.9291 36.1257 85.5828 36.1257C86.4269 36.1257 87.1301 36.5064 87.1301 37.4743V40.2203H86.5096Z" fill="#494949"/>
<path fill-rule="evenodd" clip-rule="evenodd" d="M91.8956 40.2204V37.606C91.8956 36.9031 91.5401 36.6792 91.002 36.6792C90.514 36.6792 90.0509 36.9774 89.8192 37.3V40.2204H89.1987V36.2245H89.8192V36.8036C90.1004 36.4732 90.6465 36.125 91.2418 36.125C92.0773 36.125 92.5161 36.5476 92.5161 37.416V40.2204H91.8956Z" fill="#494949"/>
<path fill-rule="evenodd" clip-rule="evenodd" d="M97.0831 39.3768V38.6239C96.8432 38.2935 96.4215 38.1278 95.9827 38.1278C95.4036 38.1278 94.9986 38.4914 94.9986 39.0045C94.9986 39.5093 95.4036 39.8729 95.9827 39.8729C96.4215 39.8729 96.8432 39.708 97.0831 39.3768ZM97.0831 40.2203V39.7656C96.7519 40.1298 96.2971 40.3198 95.7596 40.3198C95.081 40.3198 94.3613 39.8648 94.3613 38.9964C94.3613 38.1029 95.081 37.6811 95.7596 37.6811C96.3052 37.6811 96.7608 37.8547 97.0831 38.2272V37.5073C97.0831 36.9693 96.6526 36.6632 96.0741 36.6632C95.5942 36.6632 95.2054 36.8368 94.8493 37.2174L94.56 36.7876C94.9899 36.3407 95.5028 36.1257 96.1565 36.1257C97.0006 36.1257 97.7035 36.5064 97.7035 37.4743V40.2203H97.0831Z" fill="#494949"/>
<path fill-rule="evenodd" clip-rule="evenodd" d="M102.659 39.0708V37.3251C102.444 36.9774 101.964 36.68 101.468 36.68C100.665 36.68 100.185 37.3167 100.185 38.2021C100.185 39.0789 100.665 39.7245 101.468 39.7245C101.964 39.7245 102.444 39.4182 102.659 39.0708ZM99.7631 41.2466L100.078 40.7835C100.409 41.1804 100.805 41.3291 101.377 41.3291C102.038 41.3291 102.659 41.0066 102.659 40.13V39.5588C102.369 39.9643 101.881 40.2706 101.318 40.2706C100.276 40.2706 99.54 39.4925 99.54 38.2021C99.54 36.9201 100.268 36.1257 101.318 36.1257C101.856 36.1257 102.336 36.3901 102.659 36.8287V36.2244H103.279V40.1049C103.279 41.4283 102.353 41.842 101.377 41.842C100.698 41.842 100.235 41.7095 99.7631 41.2466Z" fill="#494949"/>
<path fill-rule="evenodd" clip-rule="evenodd" d="M107.075 36.6382C106.223 36.6382 105.801 37.3582 105.768 37.9706H108.39C108.382 37.3744 107.985 36.6382 107.075 36.6382ZM105.114 38.2185C105.114 37.06 105.942 36.1254 107.083 36.1254C108.291 36.1254 109.003 37.0684 109.003 38.268V38.4253H105.768C105.818 39.1783 106.347 39.8071 107.207 39.8071C107.662 39.8071 108.126 39.6252 108.44 39.3021L108.738 39.7076C108.341 40.1045 107.803 40.32 107.149 40.32C105.966 40.32 105.114 39.4678 105.114 38.2185Z" fill="#494949"/>
<path fill-rule="evenodd" clip-rule="evenodd" d="M113.726 39.137V37.3248C113.502 36.9774 113.022 36.68 112.526 36.68C111.723 36.68 111.243 37.3418 111.243 38.2272C111.243 39.1119 111.723 39.7656 112.526 39.7656C113.022 39.7656 113.502 39.4844 113.726 39.137ZM113.726 40.2203V39.625C113.427 40.0305 112.939 40.3198 112.377 40.3198C111.335 40.3198 110.598 39.5255 110.598 38.2272C110.598 36.953 111.326 36.1257 112.377 36.1257C112.915 36.1257 113.403 36.3901 113.726 36.8287V34.7023H114.346V40.2203H113.726Z" fill="#494949"/>
<path fill-rule="evenodd" clip-rule="evenodd" d="M116.29 39.8483C116.29 39.6004 116.497 39.3936 116.745 39.3936C116.993 39.3936 117.2 39.6004 117.2 39.8483C117.2 40.0965 116.993 40.3033 116.745 40.3033C116.497 40.3033 116.29 40.0965 116.29 39.8483Z" fill="#494949"/>
</svg>
